# xmcd
#
# Track frame offsets: 
#        150
#        14280
#        25349
#        35823
#        47628
#        59500
#        78796
#        95385
#        110289
#        122322
#        146540
#        163068
#        184308
#        202822
#        217869
#        236168
#        249579
#        263988
#        280663
#        298671
#
# Disc length: 4266 seconds
#
# Revision: 1
# Processed by: cddbd v1.5.2PL0 Copyright (c) Steve Scherf et al.
# Submitted via: ExactAudioCopyFreeDBPlugin 1.0
#
DISCID=1910a814
DTITLE=Pavel Bobek - Antologie [CD 2)
DYEAR=2007
DGENRE=Country
TTITLE0=Známe se míň, než chvíli
TTITLE1=Tátovo boogie
TTITLE2=Mé tělo, má duše a já
TTITLE3=Permanentní flám
TTITLE4=Právě tak
TTITLE5=Stárnoucí mladík
TTITLE6=S tím bláznem si nic nezačínej (feat. Marie Rottrová)
TTITLE7=A tak to půjde dál
TTITLE8=Láska ze školních let
TTITLE9=Dálniční hlídka
TTITLE10=Muž na konci světa
TTITLE11=Věž tónů a slov
TTITLE12=Noční déšť jde Georgií
TTITLE13=Šel jsem kolem
TTITLE14=Pouhý známý
TTITLE15=Muž, který nikdy nebyl in
TTITLE16=Písmeno N
TTITLE17=Mé září
TTITLE18=V očích mužů a žen
TTITLE19=Ještě není tma (bonus track)
EXTD=
EXTT0=
EXTT1=
EXTT2=
EXTT3=
EXTT4=
EXTT5=
EXTT6=
EXTT7=
EXTT8=
EXTT9=
EXTT10=
EXTT11=
EXTT12=
EXTT13=
EXTT14=
EXTT15=
EXTT16=
EXTT17=
EXTT18=
EXTT19=
PLAYORDER=
